<svg width="14" height="14" viewBox="0 0 14 14" fill="none" xmlns="http://www.w3.org/2000/svg">
<path fill-rule="evenodd" clip-rule="evenodd" d="M7.00001 13.4001C10.5346 13.4001 13.4 10.5347 13.4 7.0001C13.4 3.46547 10.5346 0.600098 7.00001 0.600098C3.46538 0.600098 0.600006 3.46547 0.600006 7.0001C0.600006 10.5347 3.46538 13.4001 7.00001 13.4001ZM5.98894 4.58327C6.36635 3.95426 6.75695 3.8001 7.00001 3.8001C7.24305 3.8001 7.63369 3.95426 8.01105 4.58327C8.23841 4.96213 8.72977 5.08499 9.10865 4.85767C9.48753 4.63035 9.6104 4.13894 9.38305 3.76007C8.8232 2.82699 7.98537 2.2001 7.00001 2.2001C6.01464 2.2001 5.17681 2.82699 4.61696 3.76007C4.38906 4.1399 4.21138 4.55961 4.08078 5.0001H3.80001C3.35818 5.0001 3.00001 5.35827 3.00001 5.8001C3.00001 6.24192 3.35818 6.6001 3.80001 6.6001H3.8107C3.80355 6.73371 3.80001 6.8672 3.80001 7.0001C3.80001 7.13298 3.80355 7.2665 3.8107 7.4001H3.80001C3.35818 7.4001 3.00001 7.75826 3.00001 8.2001C3.00001 8.64194 3.35818 9.0001 3.80001 9.0001H4.08078C4.21138 9.44058 4.38906 9.86034 4.61696 10.2401C5.17681 11.1732 6.01464 11.8001 7.00001 11.8001C7.98537 11.8001 8.8232 11.1732 9.38305 10.2401C9.6104 9.86122 9.48753 9.36986 9.10865 9.1425C8.72977 8.91522 8.23841 9.0381 8.01105 9.4169C7.63369 10.0459 7.24305 10.2001 7.00001 10.2001C6.75695 10.2001 6.36635 10.0459 5.98894 9.4169C5.91142 9.2877 5.84089 9.14818 5.77773 9.0001H7.00001C7.44185 9.0001 7.80001 8.64194 7.80001 8.2001C7.80001 7.75826 7.44185 7.4001 7.00001 7.4001H5.41357C5.40457 7.2681 5.40001 7.13458 5.40001 7.0001C5.40001 6.86563 5.40457 6.73208 5.41357 6.6001H7.00001C7.44185 6.6001 7.80001 6.24192 7.80001 5.8001C7.80001 5.35827 7.44185 5.0001 7.00001 5.0001H5.77773C5.84089 4.852 5.91142 4.71247 5.98894 4.58327Z" fill="white"/>
</svg>
