<svg width="16" height="15" viewBox="0 0 16 15" fill="none" xmlns="http://www.w3.org/2000/svg">
<path d="M11.0553 0.333245C10.4855 0.336416 9.92192 0.452795 9.39741 0.675621C8.8729 0.898448 8.3979 1.22328 8.00001 1.63125C7.40932 1.02061 6.64979 0.600221 5.8187 0.423927C4.98762 0.247633 4.12283 0.323463 3.3351 0.641703C2.54738 0.959942 1.8726 1.5061 1.3972 2.21021C0.921803 2.91433 0.667431 3.74433 0.666672 4.59391C0.666672 8.48991 7.32934 13.9646 7.61334 14.1939C7.72265 14.2827 7.85918 14.3312 8.00001 14.3312C8.14083 14.3312 8.27736 14.2827 8.38667 14.1939C8.67067 13.9646 15.3333 8.48991 15.3333 4.59391C15.3296 3.46205 14.8772 2.37786 14.0752 1.57914C13.2732 0.78041 12.1872 0.332357 11.0553 0.333245Z" fill="white"/>
</svg>
