<svg width="225" height="16" viewBox="0 0 225 16" fill="none" xmlns="http://www.w3.org/2000/svg">
<path d="M25.486 15L24.55 11.94H19.87L18.934 15H16L20.536 2.094H23.866L28.42 15H25.486ZM22.966 6.666C22.906 6.462 22.828 6.204 22.732 5.892C22.636 5.58 22.54 5.262 22.444 4.938C22.348 4.614 22.27 4.332 22.21 4.092C22.15 4.332 22.066 4.632 21.958 4.992C21.862 5.34 21.766 5.676 21.67 6C21.586 6.312 21.52 6.534 21.472 6.666L20.554 9.654H23.902L22.966 6.666ZM36.6897 12.084C36.6897 12.744 36.5337 13.308 36.2217 13.776C35.9097 14.232 35.4417 14.58 34.8177 14.82C34.1937 15.06 33.4197 15.18 32.4957 15.18C31.8117 15.18 31.2237 15.132 30.7317 15.036C30.2397 14.952 29.7477 14.808 29.2557 14.604V12.39C29.7837 12.63 30.3537 12.828 30.9657 12.984C31.5777 13.14 32.1177 13.218 32.5857 13.218C33.1137 13.218 33.4857 13.14 33.7017 12.984C33.9297 12.828 34.0437 12.624 34.0437 12.372C34.0437 12.204 33.9957 12.054 33.8997 11.922C33.8157 11.79 33.6237 11.64 33.3237 11.472C33.0237 11.304 32.5557 11.088 31.9197 10.824C31.3077 10.56 30.8037 10.302 30.4077 10.05C30.0117 9.786 29.7177 9.474 29.5257 9.114C29.3337 8.742 29.2377 8.28 29.2377 7.728C29.2377 6.816 29.5917 6.132 30.2997 5.676C31.0077 5.22 31.9497 4.992 33.1257 4.992C33.7377 4.992 34.3197 5.052 34.8717 5.172C35.4237 5.292 35.9937 5.49 36.5817 5.766L35.7717 7.692C35.4477 7.548 35.1357 7.422 34.8357 7.314C34.5357 7.206 34.2417 7.122 33.9537 7.062C33.6777 7.002 33.3897 6.972 33.0897 6.972C32.6937 6.972 32.3937 7.026 32.1897 7.134C31.9977 7.242 31.9017 7.404 31.9017 7.62C31.9017 7.776 31.9497 7.92 32.0457 8.052C32.1537 8.172 32.3517 8.304 32.6397 8.448C32.9397 8.592 33.3777 8.784 33.9537 9.024C34.5177 9.252 35.0037 9.492 35.4117 9.744C35.8197 9.984 36.1317 10.29 36.3477 10.662C36.5757 11.022 36.6897 11.496 36.6897 12.084ZM42.919 13.038C43.219 13.038 43.507 13.008 43.783 12.948C44.059 12.888 44.335 12.816 44.611 12.732V14.73C44.323 14.85 43.963 14.952 43.531 15.036C43.111 15.132 42.649 15.18 42.145 15.18C41.557 15.18 41.029 15.084 40.561 14.892C40.105 14.7 39.739 14.37 39.463 13.902C39.199 13.422 39.067 12.762 39.067 11.922V7.188H37.789V6.054L39.265 5.154L40.039 3.084H41.749V5.172H44.503V7.188H41.749V11.922C41.749 12.294 41.857 12.576 42.073 12.768C42.289 12.948 42.571 13.038 42.919 13.038ZM52.0737 4.992C52.2057 4.992 52.3617 4.998 52.5417 5.01C52.7217 5.022 52.8657 5.04 52.9737 5.064L52.7757 7.584C52.6917 7.56 52.5657 7.542 52.3977 7.53C52.2417 7.506 52.1037 7.494 51.9837 7.494C51.6357 7.494 51.2997 7.542 50.9757 7.638C50.6517 7.722 50.3577 7.86 50.0937 8.052C49.8417 8.244 49.6377 8.502 49.4817 8.826C49.3377 9.138 49.2657 9.528 49.2657 9.996V15H46.5837V5.172H48.6177L49.0137 6.828H49.1397C49.3317 6.492 49.5717 6.186 49.8597 5.91C50.1477 5.634 50.4777 5.412 50.8497 5.244C51.2337 5.076 51.6417 4.992 52.0737 4.992ZM63.334 10.068C63.334 10.884 63.22 11.61 62.992 12.246C62.776 12.882 62.458 13.422 62.038 13.866C61.63 14.298 61.132 14.628 60.544 14.856C59.956 15.072 59.29 15.18 58.546 15.18C57.862 15.18 57.226 15.072 56.638 14.856C56.062 14.628 55.564 14.298 55.144 13.866C54.724 13.422 54.394 12.882 54.154 12.246C53.926 11.61 53.812 10.884 53.812 10.068C53.812 8.976 54.004 8.058 54.388 7.314C54.772 6.558 55.324 5.982 56.044 5.586C56.764 5.19 57.616 4.992 58.6 4.992C59.524 4.992 60.34 5.19 61.048 5.586C61.756 5.982 62.314 6.558 62.722 7.314C63.13 8.058 63.334 8.976 63.334 10.068ZM56.548 10.068C56.548 10.716 56.614 11.262 56.746 11.706C56.89 12.138 57.112 12.468 57.412 12.696C57.712 12.912 58.102 13.02 58.582 13.02C59.062 13.02 59.446 12.912 59.734 12.696C60.034 12.468 60.25 12.138 60.382 11.706C60.526 11.262 60.598 10.716 60.598 10.068C60.598 9.42 60.526 8.88 60.382 8.448C60.25 8.016 60.034 7.692 59.734 7.476C59.434 7.26 59.044 7.152 58.564 7.152C57.856 7.152 57.34 7.398 57.016 7.89C56.704 8.37 56.548 9.096 56.548 10.068ZM77.8403 15H70.4423V2.148H77.8403V4.38H73.1603V7.206H77.5163V9.438H73.1603V12.75H77.8403V15ZM84.2945 15.18C83.3225 15.18 82.4945 15.006 81.8105 14.658C81.1265 14.298 80.6045 13.746 80.2445 13.002C79.8845 12.258 79.7045 11.304 79.7045 10.14C79.7045 8.94 79.9085 7.962 80.3165 7.206C80.7245 6.45 81.2885 5.892 82.0085 5.532C82.7405 5.172 83.5805 4.992 84.5285 4.992C85.2005 4.992 85.7825 5.058 86.2745 5.19C86.7785 5.322 87.2165 5.478 87.5885 5.658L86.7965 7.728C86.3765 7.56 85.9805 7.422 85.6085 7.314C85.2485 7.206 84.8885 7.152 84.5285 7.152C84.0605 7.152 83.6705 7.266 83.3585 7.494C83.0465 7.71 82.8125 8.04 82.6565 8.484C82.5125 8.916 82.4405 9.462 82.4405 10.122C82.4405 10.77 82.5185 11.31 82.6745 11.742C82.8425 12.162 83.0825 12.48 83.3945 12.696C83.7065 12.9 84.0845 13.002 84.5285 13.002C85.0925 13.002 85.5905 12.93 86.0225 12.786C86.4545 12.63 86.8745 12.42 87.2825 12.156V14.442C86.8745 14.706 86.4425 14.892 85.9865 15C85.5425 15.12 84.9785 15.18 84.2945 15.18ZM98.4726 10.068C98.4726 10.884 98.3586 11.61 98.1306 12.246C97.9146 12.882 97.5966 13.422 97.1766 13.866C96.7686 14.298 96.2706 14.628 95.6826 14.856C95.0946 15.072 94.4286 15.18 93.6846 15.18C93.0006 15.18 92.3646 15.072 91.7766 14.856C91.2006 14.628 90.7026 14.298 90.2826 13.866C89.8626 13.422 89.5326 12.882 89.2926 12.246C89.0646 11.61 88.9506 10.884 88.9506 10.068C88.9506 8.976 89.1426 8.058 89.5266 7.314C89.9106 6.558 90.4626 5.982 91.1826 5.586C91.9026 5.19 92.7546 4.992 93.7386 4.992C94.6626 4.992 95.4786 5.19 96.1866 5.586C96.8946 5.982 97.4526 6.558 97.8606 7.314C98.2686 8.058 98.4726 8.976 98.4726 10.068ZM91.6866 10.068C91.6866 10.716 91.7526 11.262 91.8846 11.706C92.0286 12.138 92.2506 12.468 92.5506 12.696C92.8506 12.912 93.2406 13.02 93.7206 13.02C94.2006 13.02 94.5846 12.912 94.8726 12.696C95.1726 12.468 95.3886 12.138 95.5206 11.706C95.6646 11.262 95.7366 10.716 95.7366 10.068C95.7366 9.42 95.6646 8.88 95.5206 8.448C95.3886 8.016 95.1726 7.692 94.8726 7.476C94.5726 7.26 94.1826 7.152 93.7026 7.152C92.9946 7.152 92.4786 7.398 92.1546 7.89C91.8426 8.37 91.6866 9.096 91.6866 10.068ZM112.227 4.992C113.343 4.992 114.183 5.28 114.747 5.856C115.323 6.42 115.611 7.332 115.611 8.592V15H112.929V9.258C112.929 8.55 112.809 8.022 112.569 7.674C112.329 7.314 111.957 7.134 111.453 7.134C110.745 7.134 110.241 7.386 109.941 7.89C109.641 8.394 109.491 9.12 109.491 10.068V15H106.809V9.258C106.809 8.79 106.755 8.4 106.647 8.088C106.539 7.776 106.377 7.542 106.161 7.386C105.945 7.218 105.669 7.134 105.333 7.134C104.841 7.134 104.451 7.26 104.163 7.512C103.875 7.764 103.671 8.13 103.551 8.61C103.431 9.09 103.371 9.678 103.371 10.374V15H100.689V5.172H102.741L103.101 6.432H103.245C103.449 6.096 103.701 5.826 104.001 5.622C104.301 5.406 104.631 5.25 104.991 5.154C105.363 5.046 105.735 4.992 106.107 4.992C106.827 4.992 107.439 5.112 107.943 5.352C108.447 5.58 108.831 5.94 109.095 6.432H109.329C109.629 5.928 110.043 5.562 110.571 5.334C111.111 5.106 111.663 4.992 112.227 4.992ZM129.911 4.992C131.027 4.992 131.867 5.28 132.431 5.856C133.007 6.42 133.295 7.332 133.295 8.592V15H130.613V9.258C130.613 8.55 130.493 8.022 130.253 7.674C130.013 7.314 129.641 7.134 129.137 7.134C128.429 7.134 127.925 7.386 127.625 7.89C127.325 8.394 127.175 9.12 127.175 10.068V15H124.493V9.258C124.493 8.79 124.439 8.4 124.331 8.088C124.223 7.776 124.061 7.542 123.845 7.386C123.629 7.218 123.353 7.134 123.017 7.134C122.525 7.134 122.135 7.26 121.847 7.512C121.559 7.764 121.355 8.13 121.235 8.61C121.115 9.09 121.055 9.678 121.055 10.374V15H118.373V5.172H120.425L120.785 6.432H120.929C121.133 6.096 121.385 5.826 121.685 5.622C121.985 5.406 122.315 5.25 122.675 5.154C123.047 5.046 123.419 4.992 123.791 4.992C124.511 4.992 125.123 5.112 125.627 5.352C126.131 5.58 126.515 5.94 126.779 6.432H127.013C127.313 5.928 127.727 5.562 128.255 5.334C128.795 5.106 129.347 4.992 129.911 4.992ZM140.106 4.992C141.018 4.992 141.798 5.166 142.446 5.514C143.106 5.862 143.616 6.366 143.976 7.026C144.336 7.686 144.516 8.496 144.516 9.456V10.752H138.18C138.204 11.508 138.426 12.102 138.846 12.534C139.278 12.966 139.872 13.182 140.628 13.182C141.264 13.182 141.84 13.122 142.356 13.002C142.872 12.87 143.406 12.672 143.958 12.408V14.478C143.478 14.718 142.968 14.892 142.428 15C141.9 15.12 141.258 15.18 140.502 15.18C139.518 15.18 138.648 15 137.892 14.64C137.136 14.268 136.542 13.71 136.11 12.966C135.678 12.222 135.462 11.286 135.462 10.158C135.462 9.006 135.654 8.052 136.038 7.296C136.434 6.528 136.98 5.952 137.676 5.568C138.372 5.184 139.182 4.992 140.106 4.992ZM140.124 6.9C139.608 6.9 139.176 7.068 138.828 7.404C138.492 7.74 138.294 8.262 138.234 8.97H141.996C141.996 8.574 141.924 8.22 141.78 7.908C141.648 7.596 141.444 7.35 141.168 7.17C140.892 6.99 140.544 6.9 140.124 6.9ZM152.181 4.992C152.313 4.992 152.469 4.998 152.649 5.01C152.829 5.022 152.973 5.04 153.081 5.064L152.883 7.584C152.799 7.56 152.673 7.542 152.505 7.53C152.349 7.506 152.211 7.494 152.091 7.494C151.743 7.494 151.407 7.542 151.083 7.638C150.759 7.722 150.465 7.86 150.201 8.052C149.949 8.244 149.745 8.502 149.589 8.826C149.445 9.138 149.373 9.528 149.373 9.996V15H146.691V5.172H148.725L149.121 6.828H149.247C149.439 6.492 149.679 6.186 149.967 5.91C150.255 5.634 150.585 5.412 150.957 5.244C151.341 5.076 151.749 4.992 152.181 4.992ZM158.509 15.18C157.537 15.18 156.709 15.006 156.025 14.658C155.341 14.298 154.819 13.746 154.459 13.002C154.099 12.258 153.919 11.304 153.919 10.14C153.919 8.94 154.123 7.962 154.531 7.206C154.939 6.45 155.503 5.892 156.223 5.532C156.955 5.172 157.795 4.992 158.743 4.992C159.415 4.992 159.997 5.058 160.489 5.19C160.993 5.322 161.431 5.478 161.803 5.658L161.011 7.728C160.591 7.56 160.195 7.422 159.823 7.314C159.463 7.206 159.103 7.152 158.743 7.152C158.275 7.152 157.885 7.266 157.573 7.494C157.261 7.71 157.027 8.04 156.871 8.484C156.727 8.916 156.655 9.462 156.655 10.122C156.655 10.77 156.733 11.31 156.889 11.742C157.057 12.162 157.297 12.48 157.609 12.696C157.921 12.9 158.299 13.002 158.743 13.002C159.307 13.002 159.805 12.93 160.237 12.786C160.669 12.63 161.089 12.42 161.497 12.156V14.442C161.089 14.706 160.657 14.892 160.201 15C159.757 15.12 159.193 15.18 158.509 15.18ZM167.809 4.992C168.721 4.992 169.501 5.166 170.149 5.514C170.809 5.862 171.319 6.366 171.679 7.026C172.039 7.686 172.219 8.496 172.219 9.456V10.752H165.883C165.907 11.508 166.129 12.102 166.549 12.534C166.981 12.966 167.575 13.182 168.331 13.182C168.967 13.182 169.543 13.122 170.059 13.002C170.575 12.87 171.109 12.672 171.661 12.408V14.478C171.181 14.718 170.671 14.892 170.131 15C169.603 15.12 168.961 15.18 168.205 15.18C167.221 15.18 166.351 15 165.595 14.64C164.839 14.268 164.245 13.71 163.813 12.966C163.381 12.222 163.165 11.286 163.165 10.158C163.165 9.006 163.357 8.052 163.741 7.296C164.137 6.528 164.683 5.952 165.379 5.568C166.075 5.184 166.885 4.992 167.809 4.992ZM167.827 6.9C167.311 6.9 166.879 7.068 166.531 7.404C166.195 7.74 165.997 8.262 165.937 8.97H169.699C169.699 8.574 169.627 8.22 169.483 7.908C169.351 7.596 169.147 7.35 168.871 7.17C168.595 6.99 168.247 6.9 167.827 6.9Z" fill="white"/>
</svg>
