<svg width="16" height="17" viewBox="0 0 16 17" fill="none" xmlns="http://www.w3.org/2000/svg">
<path fill-rule="evenodd" clip-rule="evenodd" d="M6.40001 3.50015C4.63269 3.50015 3.20001 4.93283 3.20001 6.70015C3.20001 8.46743 4.63269 9.90015 6.40001 9.90015C8.16729 9.90015 9.60001 8.46743 9.60001 6.70015C9.60001 4.93283 8.16729 3.50015 6.40001 3.50015ZM1.60001 6.70015C1.60001 4.04918 3.74904 1.90015 6.40001 1.90015C9.05097 1.90015 11.2 4.04918 11.2 6.70015C11.2 7.73681 10.8714 8.69671 10.3126 9.48135L14.1657 13.3345C14.4781 13.6469 14.4781 14.1534 14.1657 14.4658C13.8533 14.7782 13.3467 14.7782 13.0343 14.4658L9.18121 10.6127C8.39657 11.1715 7.43667 11.5001 6.40001 11.5001C3.74904 11.5001 1.60001 9.35111 1.60001 6.70015Z" fill="#64748B"/>
</svg>
